<svg xmlns="http://www.w3.org/2000/svg" viewBox="0 0 181.4 81.62"><defs><style>.cls-1,.cls-4{fill:#f4ebdd;}.cls-2{fill:#231f20;}.cls-2,.cls-3,.cls-4{stroke:#231f20;stroke-linecap:round;stroke-linejoin:round;stroke-width:2.5px;}.cls-3,.cls-6,.cls-7{fill:none;}.cls-5,.cls-8{fill:#fff;}.cls-5,.cls-6,.cls-7{stroke:#fff;stroke-miterlimit:10;}.cls-6{stroke-width:2px;}</style></defs><title>logo</title><g id="OBJECTS"><path class="cls-1" d="M250,396.06" transform="translate(-135.12 -394.26)"/><path class="cls-2" d="M250,389.62" transform="translate(-135.12 -394.26)"/><path class="cls-3" d="M250,389.62" transform="translate(-135.12 -394.26)"/><path class="cls-4" d="M250,383.19" transform="translate(-135.12 -394.26)"/><polygon class="cls-5" points="90.7 1.62 94.26 12.59 105.8 12.59 96.47 19.37 100.03 30.33 90.7 23.55 81.37 30.33 84.93 19.37 75.6 12.59 87.14 12.59 90.7 1.62"/><polygon class="cls-5" points="59.48 7.82 61.51 14.05 68.06 14.05 62.76 17.9 64.79 24.13 59.48 20.28 54.18 24.13 56.21 17.9 50.91 14.05 57.46 14.05 59.48 7.82"/><polygon class="cls-5" points="121.92 7.82 123.94 14.05 130.49 14.05 125.19 17.9 127.22 24.13 121.92 20.28 116.61 24.13 118.64 17.9 113.34 14.05 119.89 14.05 121.92 7.82"/><path class="cls-6" d="M264.84,435.45a39,39,0,1,1-78,0Z" transform="translate(-135.12 -394.26)"/><line class="cls-7" x1="129.72" y1="41.19" x2="51.68" y2="41.19"/><rect class="cls-8" x="74.39" y="77.14" width="32.62" height="4.47"/><line class="cls-6" x1="5.56" y1="48.47" x2="35.98" y2="78.89"/><line class="cls-6" x1="18.3" y1="61.21" x2="18.3" y2="51.59"/><line class="cls-6" x1="18.28" y1="61.24" x2="8.65" y2="61.24"/><line class="cls-6" x1="28.8" y1="71.71" x2="28.8" y2="55.76"/><line class="cls-6" x1="28.78" y1="71.73" x2="12.83" y2="71.73"/><circle class="cls-6" cx="153.43" cy="443.07" r="2.67" transform="translate(-403.48 -156) rotate(-45)"/><circle class="cls-6" cx="138.8" cy="440.85" r="2.67" transform="translate(-406.2 -167) rotate(-45)"/><circle class="cls-6" cx="141.28" cy="455.22" r="2.67" transform="translate(-415.64 -161.02) rotate(-45)"/><path class="cls-6" d="M168.47,451.12a9.72,9.72,0,0,1-4.54,8.67,9.79,9.79,0,0,1-5.21-8.28c-.2-5.06,4.54-8.67,4.54-8.67S168.27,446.19,168.47,451.12Z" transform="translate(-135.12 -394.26)"/><path class="cls-6" d="M149.41,470.6a9.72,9.72,0,0,0,8.67-4.54,9.79,9.79,0,0,0-8.28-5.21c-5.06-.2-8.67,4.54-8.67,4.54S144.49,470.41,149.41,470.6Z" transform="translate(-135.12 -394.26)"/><line class="cls-6" x1="175.84" y1="48.47" x2="145.42" y2="78.89"/><line class="cls-6" x1="163.1" y1="61.21" x2="163.1" y2="51.59"/><line class="cls-6" x1="163.12" y1="61.24" x2="172.75" y2="61.24"/><line class="cls-6" x1="152.6" y1="71.71" x2="152.6" y2="55.76"/><line class="cls-6" x1="152.62" y1="71.73" x2="168.57" y2="71.73"/><circle class="cls-6" cx="298.22" cy="443.07" r="2.67" transform="translate(-361.07 -53.62) rotate(-45)"/><circle class="cls-6" cx="312.85" cy="440.85" r="2.67" transform="translate(-355.22 -43.91) rotate(-45)"/><circle class="cls-6" cx="310.37" cy="455.22" r="2.67" transform="translate(-366.11 -41.47) rotate(-45)"/><path class="cls-6" d="M283.18,451.12a9.72,9.72,0,0,0,4.54,8.67,9.79,9.79,0,0,0,5.21-8.28c.2-5.06-4.54-8.67-4.54-8.67S283.38,446.19,283.18,451.12Z" transform="translate(-135.12 -394.26)"/><path class="cls-6" d="M302.24,470.6a9.72,9.72,0,0,1-8.67-4.54,9.79,9.79,0,0,1,8.28-5.21c5.06-.2,8.67,4.54,8.67,4.54S307.16,470.41,302.24,470.6Z" transform="translate(-135.12 -394.26)"/></g></svg>